<svg xmlns="http://www.w3.org/2000/svg" width="100%" height="100%" viewBox="0 0 1200 380"><defs><linearGradient id="bg-grad" x1="0%" x2="100%" y1="0%" y2="100%"><stop offset="0%" stop-color="#0a0c10"/><stop offset="50%" stop-color="#0d1117"/><stop offset="100%" stop-color="#161b22"/></linearGradient><linearGradient id="primary-glow" x1="0%" x2="100%" y1="0%" y2="0%"><stop offset="0%" stop-color="#38bdf8"/><stop offset="50%" stop-color="#818cf8"/><stop offset="100%" stop-color="#c084fc"/></linearGradient><linearGradient id="accent-green" x1="0%" x2="100%" y1="0%" y2="100%"><stop offset="0%" stop-color="#34d399"/><stop offset="100%" stop-color="#059669"/></linearGradient><linearGradient id="chart-area" x1="0%" x2="0%" y1="0%" y2="100%"><stop offset="0%" stop-color="#38bdf8" stop-opacity=".35"/><stop offset="100%" stop-color="#38bdf8" stop-opacity="0"/></linearGradient><linearGradient id="card-bg" x1="0%" x2="100%" y1="0%" y2="100%"><stop offset="0%" stop-color="#1e293b" stop-opacity=".75"/><stop offset="100%" stop-color="#0f172a" stop-opacity=".85"/></linearGradient><linearGradient id="shimmer" x1="0%" x2="100%" y1="0%" y2="0%"><stop offset="0%" stop-color="#fff" stop-opacity="0"/><stop offset="50%" stop-color="#fff" stop-opacity=".15"/><stop offset="100%" stop-color="#fff" stop-opacity="0"/></linearGradient><filter id="glow" width="140%" height="140%" x="-20%" y="-20%"><feGaussianBlur result="blur" stdDeviation="8"/><feComposite in="SourceGraphic" in2="blur" operator="over"/></filter><filter id="subtle-glow" width="140%" height="140%" x="-20%" y="-20%"><feGaussianBlur result="blur" stdDeviation="3"/><feComposite in="SourceGraphic" in2="blur" operator="over"/></filter><pattern id="grid" width="40" height="40" patternUnits="userSpaceOnUse"><path fill="none" stroke="#30363d" stroke-opacity=".4" stroke-width=".75" d="M 40 0 L 0 0 0 40"/></pattern><pattern id="dots" width="20" height="20" patternUnits="userSpaceOnUse"><circle cx="2" cy="2" r="1" fill="#475569" fill-opacity=".3"/></pattern><style>@keyframes pulse-dot{0%{transform:scale(1);opacity:.9}50%{transform:scale(1.4);opacity:.4}}@keyframes float-slow{0%{transform:translateY(0) rotate(0deg)}50%{transform:translateY(-8px) rotate(1deg)}}@keyframes float-reverse{0%{transform:translateY(0)}50%{transform:translateY(6px)}}@keyframes dash{0%{stroke-dashoffset:600}}@keyframes shimmer-move{0%{transform:translateX(-100%)}}@keyframes glow-pulse{0%{opacity:.6;filter:drop-shadow(0 0 8px rgba(56,189,248,.4))}50%{opacity:.95;filter:drop-shadow(0 0 16px rgba(129,140,248,.8))}}@keyframes count-fade{0%{opacity:.95}50%{opacity:.75}}.animated-chart-line{stroke-dasharray:600;stroke-dashoffset:0;animation:dash 3.5s ease-in-out infinite alternate}.floating-card-1{animation:float-slow 6s ease-in-out infinite;transform-origin:center}.floating-card-2,.pulse-beacon{animation:float-reverse 5s ease-in-out infinite;transform-origin:center}.pulse-beacon{transform-box:fill-box;animation:pulse-dot 2s ease-in-out infinite}.glow-title{animation:glow-pulse 4s ease-in-out infinite}.badge-glow{animation:count-fade 3s ease-in-out infinite}</style></defs><rect width="1200" height="380" fill="url(#bg-grad)" rx="16"/><rect width="1200" height="380" fill="url(#grid)" rx="16"/><rect width="1200" height="380" fill="url(#dots)" opacity=".6" rx="16"/><circle cx="200" cy="100" r="180" fill="#38bdf8" filter="url(#glow)" opacity=".08"/><circle cx="1000" cy="200" r="220" fill="#818cf8" filter="url(#glow)" opacity=".1"/><circle cx="600" cy="350" r="160" fill="#c084fc" filter="url(#glow)" opacity=".06"/><rect width="1198" height="378" x="1" y="1" fill="none" stroke="url(#primary-glow)" stroke-opacity=".3" stroke-width="1.5" rx="15"/><g><g class="badge-glow" transform="translate(60, 50)"><rect width="180" height="30" fill="#1e293b" stroke="#38bdf8" stroke-opacity=".5" stroke-width="1" rx="15"/><circle cx="16" cy="15" r="4.5" fill="#34d399"/><circle cx="16" cy="15" r="7" fill="#34d399" class="pulse-beacon" opacity=".5"/><text x="32" y="19.5" fill="#e2e8f0" font-family="-apple-system, BlinkMacSystemFont, 'Segoe UI', Roboto, sans-serif" font-size="11.5" font-weight="600" letter-spacing=".8">LIVE ANALYTICS</text></g><g class="glow-title"><text fill="url(#primary-glow)" font-family="-apple-system, BlinkMacSystemFont, 'Segoe UI', Roboto, 'Helvetica Neue', sans-serif" font-size="44" font-weight="800" letter-spacing="-.5" transform="translate(60, 50) translate(0, 72)">GitHub Follower Tracker</text></g><text x="0" y="122" fill="#94a3b8" font-family="-apple-system, BlinkMacSystemFont, 'Segoe UI', Roboto, sans-serif" font-size="16" font-weight="400" transform="translate(60, 50)">Track follower growth with daily snapshots, interactive insights &amp; SVG widgets.</text><g><g transform="translate(60, 50) translate(0, 160) translate(0, 0)"><rect width="145" height="34" fill="#161b22" stroke="#30363d" stroke-width="1" rx="8"/><text x="14" y="21.5" font-size="14">📸</text><text x="38" y="21.5" fill="#cbd5e1" font-family="-apple-system, BlinkMacSystemFont, 'Segoe UI', Roboto, sans-serif" font-size="12" font-weight="500">Daily Snapshots</text></g><g transform="translate(60, 50) translate(0, 160) translate(155, 0)"><rect width="165" height="34" fill="#161b22" stroke="#30363d" stroke-width="1" rx="8"/><text x="14" y="21.5" font-size="14">📊</text><text x="38" y="21.5" fill="#cbd5e1" font-family="-apple-system, BlinkMacSystemFont, 'Segoe UI', Roboto, sans-serif" font-size="12" font-weight="500">Interactive Visuals</text></g><g transform="translate(60, 50) translate(0, 160) translate(330, 0)"><rect width="155" height="34" fill="#161b22" stroke="#30363d" stroke-width="1" rx="8"/><text x="14" y="21.5" font-size="14">🖼️</text><text x="38" y="21.5" fill="#cbd5e1" font-family="-apple-system, BlinkMacSystemFont, 'Segoe UI', Roboto, sans-serif" font-size="12" font-weight="500">SVG Embeds</text></g></g><g transform="translate(60, 50) translate(0, 220)"><rect width="485" height="42" fill="#090d13" stroke="#30363d" stroke-width="1" rx="8"/><text x="16" y="26" fill="#38bdf8" font-family="'Fira Code', 'JetBrains Mono', Consolas, monospace" font-size="13.5" font-weight="600">$</text><text x="36" y="26" fill="#f1f5f9" font-family="'Fira Code', 'JetBrains Mono', Consolas, monospace" font-size="13">npm run snapshot &amp;&amp; npm run dashboard</text><circle cx="460" cy="21" r="3.5" fill="#34d399"/></g></g><g class="floating-card-1" transform="translate(680, 45)"><rect width="460" height="290" fill="url(#card-bg)" stroke="#38bdf8" stroke-opacity=".4" stroke-width="1.2" filter="url(#subtle-glow)" rx="12"/><rect width="460" height="36" fill="#0f172a" fill-opacity=".8" rx="12"/><circle cx="20" cy="18" r="4.5" fill="#ef4444" opacity=".8"/><circle cx="34" cy="18" r="4.5" fill="#eab308" opacity=".8"/><circle cx="48" cy="18" r="4.5" fill="#22c55e" opacity=".8"/><text x="70" y="22" fill="#64748b" font-family="-apple-system, BlinkMacSystemFont, 'Segoe UI', sans-serif" font-size="11" font-weight="500">follower-insights.chart</text><g transform="translate(24, 52)"><text x="0" y="12" fill="#94a3b8" font-family="-apple-system, BlinkMacSystemFont, 'Segoe UI', sans-serif" font-size="11" font-weight="500">TOTAL AUDIENCE</text><text x="0" y="38" fill="#fff" font-family="-apple-system, BlinkMacSystemFont, 'Segoe UI', sans-serif" font-size="24" font-weight="700">1,842</text><rect width="56" height="20" x="80" y="21" fill="url(#accent-green)" fill-opacity=".2" stroke="#34d399" stroke-width=".8" rx="10"/><text x="90" y="34.5" fill="#34d399" font-family="-apple-system, BlinkMacSystemFont, 'Segoe UI', sans-serif" font-size="11" font-weight="600">+14.2%</text></g><g><text x="0" y="12" fill="#94a3b8" font-family="-apple-system, BlinkMacSystemFont, 'Segoe UI', sans-serif" font-size="11" font-weight="500" transform="translate(280, 52)">NET GAIN (30D)</text><text x="0" y="38" fill="#38bdf8" font-family="-apple-system, BlinkMacSystemFont, 'Segoe UI', sans-serif" font-size="24" font-weight="700" transform="translate(280, 52)">+128</text></g><g transform="translate(24, 115)"><line x1="0" x2="412" y1="0" y2="0" stroke="#334155" stroke-dasharray="4 4" stroke-width=".75"/><line x1="0" x2="412" y1="40" y2="40" stroke="#334155" stroke-dasharray="4 4" stroke-width=".75"/><line x1="0" x2="412" y1="80" y2="80" stroke="#334155" stroke-dasharray="4 4" stroke-width=".75"/><line x1="0" x2="412" y1="120" y2="120" stroke="#334155" stroke-width="1"/><path fill="url(#chart-area)" d="M 0 105 Q 60 95, 110 70 T 210 50 T 310 30 T 412 10 L 412 120 L 0 120 Z"/><path fill="none" stroke="url(#primary-glow)" stroke-linecap="round" stroke-width="3.5" d="M 0 105 Q 60 95, 110 70 T 210 50 T 310 30 T 412 10" class="animated-chart-line"/><circle cx="110" cy="70" r="4.5" fill="#1e293b" stroke="#38bdf8" stroke-width="2.5"/><circle cx="210" cy="50" r="4.5" fill="#1e293b" stroke="#818cf8" stroke-width="2.5"/><circle cx="310" cy="30" r="4.5" fill="#1e293b" stroke="#c084fc" stroke-width="2.5"/><g transform="translate(412, 10)"><circle cx="0" cy="0" r="10" fill="#38bdf8" class="pulse-beacon" opacity=".3"/><circle cx="0" cy="0" r="5" fill="#38bdf8" stroke="#fff" stroke-width="2"/></g></g></g><g class="floating-card-2" transform="translate(630, 240)"><rect width="210" height="74" fill="#0f172a" fill-opacity=".95" stroke="#30363d" stroke-width="1" filter="url(#subtle-glow)" rx="10"/><g transform="translate(14, 14)"><circle cx="16" cy="16" r="14" fill="#38bdf8" fill-opacity=".15"/><text x="8" y="21" font-size="14">✨</text><text x="40" y="14" fill="#f8fafc" font-family="-apple-system, BlinkMacSystemFont, 'Segoe UI', sans-serif" font-size="12" font-weight="600">New Follower!</text><text x="40" y="30" fill="#94a3b8" font-family="-apple-system, BlinkMacSystemFont, 'Segoe UI', sans-serif" font-size="11">@octodev joined</text></g></g></svg>